<svg width="1280" height="800" viewBox="0 0 1280 800" xmlns="http://www.w3.org/2000/svg">
  <defs>
    <!-- Core Gradients (same as previous) -->
    <linearGradient id="primaryGradient" x1="0%" y1="0%" x2="100%" y2="100%">
      <stop offset="0%" style="stop-color:#3b82f6;stop-opacity:1" />
      <stop offset="100%" style="stop-color:#2563eb;stop-opacity:1" />
    </linearGradient>

    <linearGradient id="successGradient" x1="0%" y1="0%" x2="100%" y2="0%">
      <stop offset="0%" style="stop-color:#10b981;stop-opacity:1" />
      <stop offset="100%" style="stop-color:#34d399;stop-opacity:1" />
    </linearGradient>

    <linearGradient id="warningGradient" x1="0%" y1="0%" x2="100%" y2="0%">
      <stop offset="0%" style="stop-color:#f59e0b;stop-opacity:1" />
      <stop offset="100%" style="stop-color:#fbbf24;stop-opacity:1" />
    </linearGradient>

    <linearGradient id="dangerGradient" x1="0%" y1="0%" x2="100%" y2="0%">
      <stop offset="0%" style="stop-color:#ef4444;stop-opacity:1" />
      <stop offset="100%" style="stop-color:#f87171;stop-opacity:1" />
    </linearGradient>

    <!-- Dynamic Background (same as previous) -->
    <radialGradient id="dynamicBg" cx="50%" cy="40%" r="100%">
      <stop offset="0%" style="stop-color:#ffffff;stop-opacity:1" />
      <stop offset="40%" style="stop-color:#f0f9ff;stop-opacity:1" />
      <stop offset="100%" style="stop-color:#e0f2fe;stop-opacity:1" />
    </radialGradient>

    <!-- Professional Pattern (same as previous) -->
    <pattern id="gridPattern" x="0" y="0" width="40" height="40" patternUnits="userSpaceOnUse">
      <rect width="40" height="40" fill="none" stroke="#3b82f6" stroke-width="0.5" opacity="0.05" />
    </pattern>

    <!-- Shadows (same as previous) -->
    <filter id="extensionShadow" x="-50%" y="-50%" width="200%" height="200%">
      <feGaussianBlur in="SourceAlpha" stdDeviation="8" />
      <feOffset dx="0" dy="10" result="offsetblur" />
      <feComponentTransfer>
        <feFuncA type="linear" slope="0.25" />
      </feComponentTransfer>
      <feMerge>
        <feMergeNode />
        <feMergeNode in="SourceGraphic" />
      </feMerge>
    </filter>

    <filter id="buttonShadow" x="-50%" y="-50%" width="200%" height="200%">
      <feGaussianBlur in="SourceAlpha" stdDeviation="3" />
      <feOffset dx="0" dy="4" result="offsetblur" />
      <feComponentTransfer>
        <feFuncA type="linear" slope="0.2" />
      </feComponentTransfer>
      <feMerge>
        <feMergeNode />
        <feMergeNode in="SourceGraphic" />
      </feMerge>
    </filter>

    <filter id="selectionShadow" x="-50%" y="-50%" width="200%" height="200%">
      <feGaussianBlur in="SourceAlpha" stdDeviation="4" />
      <feOffset dx="0" dy="-4" result="offsetblur" />
      <feComponentTransfer>
        <feFuncA type="linear" slope="0.3" />
      </feComponentTransfer>
      <feMerge>
        <feMergeNode />
        <feMergeNode in="SourceGraphic" />
      </feMerge>
    </filter>
  </defs>

  <!-- Background (same as previous) -->
  <rect width="1280" height="800" fill="url(#dynamicBg)" />
  <rect width="1280" height="800" fill="url(#gridPattern)" />

  <!-- Subtle depth elements (same positioning) -->
  <g opacity="0.08">
    <circle cx="200" cy="150" r="120" fill="#3b82f6" />
    <circle cx="1080" cy="650" r="150" fill="#10b981" />
    <circle cx="1150" cy="200" r="80" fill="#8b5cf6" />
  </g>

  <!-- Browser context frame (same as previous) -->
  <g transform="translate(340, 60)">
    <!-- Browser window -->
    <rect width="600" height="680" rx="12" fill="#ffffff" filter="url(#extensionShadow)"
      opacity="0.95" />

    <!-- Browser header -->
    <rect width="600" height="40" rx="12" fill="#f8f9fa" />
    <rect x="0" y="28" width="600" height="12" fill="#f8f9fa" />

    <!-- Traffic lights -->
    <circle cx="20" cy="20" r="5" fill="#ff5f57" />
    <circle cx="36" cy="20" r="5" fill="#ffbd2e" />
    <circle cx="52" cy="20" r="5" fill="#28ca42" />

    <!-- URL bar -->
    <rect x="80" y="12" width="440" height="16" rx="8" fill="#ffffff" stroke="#e0e0e0"
      stroke-width="0.5" />
    <text x="88" y="23" font-family="-apple-system, system-ui, sans-serif" font-size="10"
      fill="#666">business-platform.com/profile/sarah-johnson</text>

    <!-- Extension icon -->
    <rect x="560" y="12" width="16" height="16" rx="3" fill="url(#primaryGradient)" />
    <text x="568" y="23" font-family="-apple-system, system-ui, sans-serif" font-size="10"
      font-weight="bold" fill="#ffffff" text-anchor="middle">@</text>
  </g>

  <!-- Generic business profile page (blurred background context) -->
  <g transform="translate(360, 120)" opacity="0.15">
    <rect width="560" height="600" fill="#f5f5f5" />
    <rect x="20" y="20" width="520" height="120" fill="#e0e0e0" rx="8" />
    <circle cx="60" cy="80" r="30" fill="#d0d0d0" />
    <rect x="110" y="60" width="150" height="12" fill="#c0c0c0" rx="6" />
    <rect x="110" y="80" width="200" height="8" fill="#c0c0c0" rx="4" />
    <rect x="110" y="96" width="180" height="8" fill="#c0c0c0" rx="4" />
  </g>

  <!-- Main Extension Popup - History View (Centered) -->
  <g transform="translate(410, 140)">
    <!-- Extension window -->
    <rect width="460" height="520" rx="12" fill="#ffffff" stroke="#e2e8f0" stroke-width="1.5"
      filter="url(#extensionShadow)" />

    <!-- Header -->
    <rect width="460" height="64" fill="#ffffff" rx="12" />
    <rect x="0" y="52" width="460" height="12" fill="#ffffff" />
    <line x1="0" y1="64" x2="460" y2="64" stroke="#e2e8f0" stroke-width="1" />

    <!-- Logo and Branding -->
    <rect x="24" y="16" width="36" height="36" rx="8" fill="url(#primaryGradient)" />
    <text x="42" y="39" font-family="-apple-system, system-ui, sans-serif" font-size="20"
      font-weight="bold" fill="#ffffff" text-anchor="middle">@</text>
    <text x="72" y="38" font-family="-apple-system, system-ui, sans-serif" font-size="20"
      font-weight="700" fill="#0f172a">FindForce</text>

    <!-- Navigation tabs hint -->
    <g transform="translate(240, 28)">
      <rect x="0" y="0" width="60" height="24" rx="4" fill="#f8fafc" />
      <text x="30" y="16" font-family="-apple-system, system-ui, sans-serif" font-size="11"
        fill="#64748b" text-anchor="middle">Finder</text>

      <rect x="68" y="0" width="60" height="24" rx="4" fill="#3b82f6" />
      <text x="98" y="16" font-family="-apple-system, system-ui, sans-serif" font-size="11"
        font-weight="600" fill="#ffffff" text-anchor="middle">History</text>

      <rect x="136" y="0" width="60" height="24" rx="4" fill="#f8fafc" />
      <text x="166" y="16" font-family="-apple-system, system-ui, sans-serif" font-size="11"
        fill="#64748b" text-anchor="middle">Settings</text>
    </g>

    <!-- History Content Area -->
    <g transform="translate(0, 64)">
      <!-- Title and Stats Section -->
      <rect width="460" height="120" fill="#ffffff" />
      <line x1="0" y1="120" x2="460" y2="120" stroke="#e2e8f0" stroke-width="1" />

      <!-- Title and count -->
      <text x="24" y="28" font-family="-apple-system, system-ui, sans-serif" font-size="16"
        font-weight="600" fill="#0f172a">Verified Emails</text>
      <text x="24" y="46" font-family="-apple-system, system-ui, sans-serif" font-size="12"
        fill="#64748b">47 of 47 emails</text>

      <!-- Export button -->
      <g transform="translate(370, 16)">
        <rect width="70" height="28" rx="6" fill="#ffffff" stroke="#d1d5db" stroke-width="1" />
        <g transform="translate(10, 8)">
          <path
            d="M 7 6 L 7 12 M 4 9 L 7 12 L 10 9 M 2 14 L 12 14 C 13 14 14 13 14 12 L 14 2 C 14 1 13 0 12 0 L 2 0 C 1 0 0 1 0 2 L 0 12 C 0 13 1 14 2 14"
            stroke="#374151" stroke-width="1.5" fill="none" stroke-linecap="round"
            stroke-linejoin="round" />
          <text x="35" y="8" font-family="-apple-system, system-ui, sans-serif" font-size="11"
            font-weight="500" fill="#374151" text-anchor="middle" dominant-baseline="middle">Export</text>
        </g>
      </g>

      <!-- Search bar -->
      <g transform="translate(24, 56)">
        <rect width="412" height="36" rx="8" fill="#f8fafc" stroke="#e2e8f0" stroke-width="1" />
        <circle cx="18" cy="18" r="5" fill="none" stroke="#94a3b8" stroke-width="1.5" />
        <line x1="21" y1="21" x2="25" y2="25" stroke="#94a3b8" stroke-width="1.5"
          stroke-linecap="round" />
        <text x="36" y="23" font-family="-apple-system, system-ui, sans-serif" font-size="13"
          fill="#94a3b8">Search emails, names, or companies...</text>
      </g>

      <!-- Select all checkbox -->
      <g transform="translate(24, 100)">
        <rect width="412" height="20" fill="#f8fafc" />
        <rect x="0" y="0" width="14" height="14" rx="3" fill="#ffffff" stroke="#d1d5db"
          stroke-width="1" />
        <path d="M 3 7 L 6 10 L 11 4" stroke="#3b82f6" stroke-width="2" stroke-linecap="round"
          stroke-linejoin="round" fill="none" />
        <text x="22" y="11" font-family="-apple-system, system-ui, sans-serif" font-size="12"
          fill="#475569">Select all 47</text>
      </g>
    </g>

    <!-- Email List -->
    <g transform="translate(0, 184)">
      <!-- Email Item 1 - High confidence -->
      <rect width="460" height="64" fill="#ffffff" stroke="#f1f5f9" stroke-width="1" />
      <rect x="24" y="25" width="14" height="14" rx="3" fill="#ffffff" stroke="#3b82f6"
        stroke-width="1.5" />
      <path d="M 27 32 L 30 35 L 35 28" stroke="#3b82f6" stroke-width="2" stroke-linecap="round"
        stroke-linejoin="round" fill="none" />

      <text x="50" y="28" font-family="-apple-system, system-ui, sans-serif" font-size="14"
        font-weight="500" fill="#0f172a">sarah.johnson@techinnovations.com</text>
      <text x="50" y="44" font-family="-apple-system, system-ui, sans-serif" font-size="11"
        fill="#64748b">Sarah Johnson • Tech Innovations Inc</text>

      <rect x="340" y="22" width="40" height="20" rx="10" fill="url(#successGradient)" />
      <text x="360" y="35" font-family="-apple-system, system-ui, sans-serif" font-size="10"
        font-weight="600" fill="#ffffff" text-anchor="middle">95%</text>

      <text x="340" y="52" font-family="-apple-system, system-ui, sans-serif" font-size="10"
        fill="#94a3b8">2m ago</text>

      <!-- Action buttons -->
      <g transform="translate(390, 24)">
        <rect x="0" y="0" width="24" height="24" rx="4" fill="#f8fafc" opacity="0.8" />
        <path
          d="M 8 14 L 6 14 C 5 14 4 13 4 12 L 4 6 C 4 5 5 4 6 4 L 12 4 C 13 4 14 5 14 6 L 14 8 M 10 20 L 18 20 C 19 20 20 19 20 18 L 20 10 C 20 9 19 8 18 8 L 10 8 C 9 8 8 9 8 10 L 8 18 C 8 19 9 20 10 20"
          stroke="#64748b" stroke-width="1.2" fill="none" stroke-linecap="round"
          stroke-linejoin="round" />

        <rect x="26" y="0" width="24" height="24" rx="4" fill="#fef2f2" opacity="0.8" />
        <path
          d="M 35 8 L 35 6 C 35 5 36 4 37 4 L 39 4 C 40 4 41 5 41 6 L 41 8 M 33 8 L 43 8 M 34 10 L 34 18 M 38 10 L 38 18 M 42 10 L 42 18 M 35 20 L 41 20 C 42 20 43 19 43 18 L 43 8 L 33 8 L 33 18 C 33 19 34 20 35 20"
          stroke="#ef4444" stroke-width="1.2" fill="none" stroke-linecap="round"
          stroke-linejoin="round" />
      </g>

      <!-- Email Item 2 - Medium confidence -->
      <g transform="translate(0, 64)">
        <rect width="460" height="64" fill="#fafafa" stroke="#f1f5f9" stroke-width="1" />
        <rect x="24" y="25" width="14" height="14" rx="3" fill="#ffffff" stroke="#3b82f6"
          stroke-width="1.5" />
        <path d="M 27 32 L 30 35 L 35 28" stroke="#3b82f6" stroke-width="2" stroke-linecap="round"
          stroke-linejoin="round" fill="none" />

        <text x="50" y="28" font-family="-apple-system, system-ui, sans-serif" font-size="14"
          font-weight="500" fill="#0f172a">john.doe@marketingpro.com</text>
        <text x="50" y="44" font-family="-apple-system, system-ui, sans-serif" font-size="11"
          fill="#64748b">John Doe • Marketing Pro Agency</text>

        <rect x="340" y="22" width="40" height="20" rx="10" fill="url(#warningGradient)" />
        <text x="360" y="35" font-family="-apple-system, system-ui, sans-serif" font-size="10"
          font-weight="600" fill="#ffffff" text-anchor="middle">78%</text>

        <text x="340" y="52" font-family="-apple-system, system-ui, sans-serif" font-size="10"
          fill="#94a3b8">1h ago</text>

        <!-- Action buttons -->
        <g transform="translate(390, 24)">
          <rect x="0" y="0" width="24" height="24" rx="4" fill="#f8fafc" opacity="0.8" />
          <path
            d="M 8 14 L 6 14 C 5 14 4 13 4 12 L 4 6 C 4 5 5 4 6 4 L 12 4 C 13 4 14 5 14 6 L 14 8 M 10 20 L 18 20 C 19 20 20 19 20 18 L 20 10 C 20 9 19 8 18 8 L 10 8 C 9 8 8 9 8 10 L 8 18 C 8 19 9 20 10 20"
            stroke="#64748b" stroke-width="1.2" fill="none" stroke-linecap="round"
            stroke-linejoin="round" />

          <rect x="26" y="0" width="24" height="24" rx="4" fill="#fef2f2" opacity="0.8" />
          <path
            d="M 35 8 L 35 6 C 35 5 36 4 37 4 L 39 4 C 40 4 41 5 41 6 L 41 8 M 33 8 L 43 8 M 34 10 L 34 18 M 38 10 L 38 18 M 42 10 L 42 18 M 35 20 L 41 20 C 42 20 43 19 43 18 L 43 8 L 33 8 L 33 18 C 33 19 34 20 35 20"
            stroke="#ef4444" stroke-width="1.2" fill="none" stroke-linecap="round"
            stroke-linejoin="round" />
        </g>
      </g>

      <!-- Email Item 3 - High confidence -->
      <g transform="translate(0, 128)">
        <rect x="24" y="25" width="14" height="14" rx="3" fill="#ffffff" stroke="#3b82f6"
          stroke-width="1.5" />
        <path d="M 27 32 L 30 35 L 35 28" stroke="#3b82f6" stroke-width="2" stroke-linecap="round"
          stroke-linejoin="round" fill="none" />

        <text x="50" y="28" font-family="-apple-system, system-ui, sans-serif" font-size="14"
          font-weight="500" fill="#0f172a">emma.wilson@designstudio.io</text>
        <text x="50" y="44" font-family="-apple-system, system-ui, sans-serif" font-size="11"
          fill="#64748b">Emma Wilson • Creative Design Studio</text>

        <rect x="340" y="22" width="40" height="20" rx="10" fill="url(#successGradient)" />
        <text x="360" y="35" font-family="-apple-system, system-ui, sans-serif" font-size="10"
          font-weight="600" fill="#ffffff" text-anchor="middle">92%</text>

        <text x="340" y="52" font-family="-apple-system, system-ui, sans-serif" font-size="10"
          fill="#94a3b8">2h ago</text>

        <!-- Action buttons -->
        <g transform="translate(390, 24)">
          <rect x="0" y="0" width="24" height="24" rx="4" fill="#f8fafc" opacity="0.8" />
          <path
            d="M 8 14 L 6 14 C 5 14 4 13 4 12 L 4 6 C 4 5 5 4 6 4 L 12 4 C 13 4 14 5 14 6 L 14 8 M 10 20 L 18 20 C 19 20 20 19 20 18 L 20 10 C 20 9 19 8 18 8 L 10 8 C 9 8 8 9 8 10 L 8 18 C 8 19 9 20 10 20"
            stroke="#64748b" stroke-width="1.2" fill="none" stroke-linecap="round"
            stroke-linejoin="round" />

          <rect x="26" y="0" width="24" height="24" rx="4" fill="#fef2f2" opacity="0.8" />
          <path
            d="M 35 8 L 35 6 C 35 5 36 4 37 4 L 39 4 C 40 4 41 5 41 6 L 41 8 M 33 8 L 43 8 M 34 10 L 34 18 M 38 10 L 38 18 M 42 10 L 42 18 M 35 20 L 41 20 C 42 20 43 19 43 18 L 43 8 L 33 8 L 33 18 C 33 19 34 20 35 20"
            stroke="#ef4444" stroke-width="1.2" fill="none" stroke-linecap="round"
            stroke-linejoin="round" />
        </g>
      </g>

      <!-- Email Item 4 - Low confidence (partially visible) -->
      <g transform="translate(0, 192)">
        <rect width="460" height="64" fill="#fafafa" stroke="#f1f5f9" stroke-width="1" />
        <rect x="24" y="25" width="14" height="14" rx="3" fill="#ffffff" stroke="#d1d5db"
          stroke-width="1" />

        <text x="50" y="28" font-family="-apple-system, system-ui, sans-serif" font-size="14"
          font-weight="500" fill="#0f172a">michael.chen@startuphub.co</text>
        <text x="50" y="44" font-family="-apple-system, system-ui, sans-serif" font-size="11"
          fill="#64748b">Michael Chen • Startup Hub Accelerator</text>

        <rect x="340" y="22" width="40" height="20" rx="10" fill="url(#dangerGradient)" />
        <text x="360" y="35" font-family="-apple-system, system-ui, sans-serif" font-size="10"
          font-weight="600" fill="#ffffff" text-anchor="middle">65%</text>

        <text x="340" y="52" font-family="-apple-system, system-ui, sans-serif" font-size="10"
          fill="#94a3b8">1d ago</text>
      </g>
    </g>

    <!-- Selection Bar (at bottom) -->
    <g transform="translate(0, 468)">
      <path d="M 0 0 L 460 0 L 460 32 Q 460 54 440 52 L 20 52 Q 0 54 0 32 Z" fill="#3b82f6"
        filter="url(#selectionShadow)" />
      <text x="24" y="30" font-family="-apple-system, system-ui, sans-serif" font-size="13"
        font-weight="500" fill="#ffffff">3 emails selected</text>

      <!-- Clear button -->
      <g transform="translate(320, 16)">
        <rect width="60" height="24" rx="6" fill="#2563eb" />
        <text x="30" y="17" font-family="-apple-system, system-ui, sans-serif" font-size="11"
          fill="#dbeafe" text-anchor="middle">Clear</text>
      </g>

      <!-- Delete button -->
      <g transform="translate(388, 16)">
        <rect width="60" height="24" rx="6" fill="#dc2626" />
        <text x="30" y="17" font-family="-apple-system, system-ui, sans-serif" font-size="11"
          font-weight="600" fill="#ffffff" text-anchor="middle">Delete</text>
      </g>
    </g>

  </g>

  <!-- Stats badges (floating) -->
  <g opacity="0.9">
    <!-- Total saved badge -->
    <g transform="translate(120, 260)">
      <rect width="160" height="36" rx="18" fill="#ffffff" stroke="#8b5cf6" stroke-width="1" />
      <text x="80" y="24" font-family="-apple-system, system-ui, sans-serif" font-size="13"
        font-weight="600" fill="#8b5cf6" text-anchor="middle">📧 2,847 emails saved</text>
    </g>

    <!-- Export ready badge -->
    <g transform="translate(1000, 320)">
      <rect width="160" height="36" rx="18" fill="#ffffff" stroke="#10b981" stroke-width="1" />
      <text x="80" y="24" font-family="-apple-system, system-ui, sans-serif" font-size="13"
        font-weight="600" fill="#10b981" text-anchor="middle">📊 CSV export ready</text>
    </g>

    <!-- Search feature badge -->
    <g transform="translate(140, 500)">
      <rect width="160" height="36" rx="18" fill="#ffffff" stroke="#3b82f6" stroke-width="1" />
      <text x="80" y="24" font-family="-apple-system, system-ui, sans-serif" font-size="13"
        font-weight="600" fill="#3b82f6" text-anchor="middle">🔍 Smart search</text>
    </g>
  </g>

  <!-- Trust indicators -->
  <g transform="translate(520, 700)">
    <!-- Chrome Web Store badge -->
    <rect width="240" height="60" rx="30" fill="#ffffff" stroke="#e2e8f0" stroke-width="1"
      opacity="0.9" />

    <!-- Chrome logo -->
    <g transform="translate(30, 15)">
      <circle cx="15" cy="15" r="15" fill="#4285f4" />
      <circle cx="15" cy="15" r="11" fill="#ffffff" />
      <circle cx="15" cy="15" r="6" fill="#ea4335" />
    </g>

    <!-- Text -->
    <text x="70" y="34" font-family="-apple-system, system-ui, sans-serif" font-size="14"
      font-weight="500" fill="#334155">Chrome Web Store</text>
    <!-- <text x="70" y="44" font-family="-apple-system, system-ui, sans-serif" font-size="12"
      fill="#64748b">4.8 ★ (2,847 reviews)</text> -->

    <!-- Install count -->
    <!-- <text x="330" y="36" font-family="-apple-system, system-ui, sans-serif" font-size="13"
      font-weight="600" fill="#10b981" text-anchor="end">50,000+ users</text> -->
  </g>

</svg>
