<svg xmlns="http://www.w3.org/2000/svg" viewBox="0 0 800 400"><defs><linearGradient id="a" x1="0%" x2="100%" y1="0%" y2="100%"><stop offset="0%" style="stop-color:#f8f9fa;stop-opacity:1"/><stop offset="100%" style="stop-color:#e9ecef;stop-opacity:1"/></linearGradient><linearGradient id="b" x1="0%" x2="100%" y1="0%" y2="0%"><stop offset="0%" style="stop-color:#4263eb;stop-opacity:1"/><stop offset="100%" style="stop-color:#7950f2;stop-opacity:1"/></linearGradient></defs><path fill="url(#a)" d="M0 0h800v400H0z"/><g transform="translate(200 200)"><rect width="160" height="200" x="-80" y="-100" fill="#fff" stroke="#dee2e6" stroke-width="2" rx="20"/><text y="-115" fill="#495057" font-family="system-ui, -apple-system, sans-serif" font-size="16" font-weight="600" text-anchor="middle">Hunter.io</text><rect width="120" height="15" x="-60" y="-70" fill="#f1f3f5" rx="7"/><rect width="120" height="15" x="-60" y="-70" fill="#fa5252" opacity=".2" rx="7"/><rect width="30" height="15" x="-60" y="-70" fill="#fa5252" rx="7"><animate attributeName="width" dur="3s" repeatCount="indefinite" values="120;80;40;10;0"/></rect><text y="-73" fill="#fff" font-family="system-ui" font-size="10" font-weight="500" text-anchor="middle">Credits</text><text y="-30" fill="#868e96" font-family="system-ui" font-size="14" text-anchor="middle">Monthly
      Cost:</text><text y="-5" fill="#fa5252" font-family="system-ui" font-size="28" font-weight="700" text-anchor="middle"> $<tspan>
        <animate attributeName="textContent" dur="3s" repeatCount="indefinite" values="49;99;149;299"/>
      </tspan>
    </text><g font-size="24"><text x="-30" transform="translate(0 40)">💸</text><text transform="translate(0 40)">
        <animate attributeName="opacity" dur="2s" repeatCount="indefinite" values="0;1;0"/> 💸 </text><text x="30" transform="translate(0 40)">
        <animate attributeName="opacity" begin="0.5s" dur="2s" repeatCount="indefinite" values="0;1;0"/> 💸 </text></g><g transform="translate(70 -80)"><circle r="15" fill="#ff6b6b"/><text y="5" fill="#fff" font-family="system-ui" font-size="18" font-weight="700" text-anchor="middle">!</text></g></g><g transform="translate(400 200)"><circle r="25" fill="#fff" stroke="#dee2e6" stroke-width="2"/><text y="5" fill="#495057" font-family="system-ui" font-size="14" font-weight="700" text-anchor="middle">VS</text></g><g transform="translate(600 200)"><rect width="160" height="200" x="-80" y="-100" fill="#fff" stroke="#4263eb" stroke-width="2" rx="20"/><text y="-115" fill="#495057" font-family="system-ui" font-size="16" font-weight="600" text-anchor="middle">FindForce</text><path fill="url(#b)" d="M-30-40q-20 0-20 15t20 15h20q20 0 20-15t-20-15zm60 0q20 0 20 15T30-10H10q-20 0-20-15t20-15z" transform="scale(1.5)"><animateTransform attributeName="transform" dur="10s" from="0 0 -25" repeatCount="indefinite" to="360 0 -25" type="rotate"/></path><text y="10" fill="#868e96" font-family="system-ui" font-size="14" text-anchor="middle">
      Always:</text><text y="35" fill="#4263eb" font-family="system-ui" font-size="32" font-weight="700" text-anchor="middle">$49</text><text y="55" fill="#868e96" font-family="system-ui" font-size="12" text-anchor="middle">Unlimited
      Forever</text><rect width="120" height="30" x="-60" y="70" fill="#51cf66" rx="15"/><text y="90" fill="#fff" font-family="system-ui" font-size="14" font-weight="600" text-anchor="middle">Save 83%</text><g transform="translate(70 -80)"><circle r="15" fill="#51cf66"/><path fill="none" stroke="#fff" stroke-linecap="round" stroke-linejoin="round" stroke-width="3" d="m-7 0 5 5L7-5"/></g></g><text x="400" y="30" fill="#212529" font-family="system-ui" font-size="24" font-weight="700" text-anchor="middle">The Credit Trap vs Unlimited Freedom</text><text x="400" y="380" fill="#868e96" font-family="system-ui" font-size="14" text-anchor="middle">Hunter.io:
    Pay more as you grow | FindForce: Same price at any scale</text></svg>