<svg xmlns="http://www.w3.org/2000/svg" id="Layer_1" data-name="Layer 1" viewBox="0 0 1255.82 355.99"><defs><style>.cls-1{fill:#ff4800}</style></defs><g id="HubSpot_Logo" data-name="HubSpot Logo"><path d="M136.01 201.48H43.79v97.14H0V58.93h43.79v100.42h92.22V58.93h43.78v239.69h-43.78zm183.9 19.66c0 19.96-16.26 36.21-36.22 36.21s-36.21-16.24-36.21-36.21V118.48h-41.47v102.66c0 42.83 34.85 77.67 77.68 77.67s77.67-34.84 77.67-77.67V118.48h-41.45zm307.69-92.09c0-21.05 13.93-27.72 29.18-27.72 12.28 0 28.53 9.35 39.14 20.71l27.19-32.06c-13.59-18.36-41.12-31.05-63.67-31.05-45.12 0-77.63 26.38-77.63 70.13 0 81.14 99.19 55.42 99.19 100.84 0 14.01-13.6 26.37-29.18 26.37-24.55 0-32.52-12.02-43.79-24.71l-30.19 31.38c19.25 23.71 43.13 35.74 71.66 35.74 42.79 0 77.29-26.71 77.29-68.46 0-90.15-99.18-62.1-99.18-101.16Zm613.61 131.28c-24.54 0-31.5-10.61-31.5-26.87v-71.98h38.14V125h-38.14V76.9l-42.12 18.91v146.62c0 37.49 25.86 56.4 61.34 56.4 5.31 0 12.61-.34 16.6-1.33l10.29-37.81c-4.64.32-9.95.65-14.61.65ZM477.96 119.68c-20.57 0-34.92 5.97-48.79 19.58v-78.9h-41.6v146.23c0 54.73 39.57 92.22 84.04 92.22 49.43 0 92.73-38.15 92.73-89.56s-39.93-89.57-86.38-89.57m-.26 137.27c-26.06 0-47.18-21.12-47.18-47.18s21.12-47.18 47.18-47.18 47.18 21.12 47.18 47.18-21.12 47.18-47.18 47.18m451.89-49.86c0-51.41-43.31-89.56-92.73-89.56-44.46 0-84.04 37.49-84.04 92.22v146.23h41.6v-78.91c13.87 13.61 28.22 19.58 48.79 19.58 46.45 0 86.38-38.81 86.38-89.57Zm-39.46-.51c0 26.06-21.12 47.18-47.18 47.18s-47.18-21.12-47.18-47.18 21.12-47.18 47.18-47.18 47.18 21.12 47.18 47.18" class="cls-1"/><path d="M1064.01 115.52V73.73c10.91-5.15 18.55-16.19 18.55-28.99v-.97c0-17.67-14.46-32.13-32.13-32.13h-.96c-17.67 0-32.13 14.46-32.13 32.13v.97c0 12.81 7.64 23.84 18.55 28.99v41.79c-16.24 2.51-31.08 9.21-43.32 19.06L877.84 45.33c.75-2.91 1.28-5.9 1.29-9.04C879.14 16.27 862.94.03 842.92 0s-36.26 16.18-36.29 36.2c-.02 20.02 16.18 36.26 36.2 36.29 6.52 0 12.56-1.84 17.85-4.85l112.86 87.79c-9.6 14.49-15.22 31.84-15.22 50.52s6.18 37.65 16.62 52.53l-34.32 34.32c-2.71-.81-5.53-1.38-8.51-1.38-16.45 0-29.78 13.33-29.78 29.78s13.34 29.78 29.78 29.78 29.78-13.33 29.78-29.78c0-2.98-.57-5.8-1.38-8.51l33.95-33.95c15.41 11.76 34.6 18.83 55.49 18.83 50.6 0 91.62-41.02 91.62-91.62 0-45.81-33.65-83.65-77.56-90.43m-14.07 137.4c-25.94 0-46.98-21.03-46.98-46.97s21.03-46.97 46.98-46.97 46.97 21.03 46.97 46.97-21.03 46.97-46.97 46.97" class="cls-1"/></g></svg>