<svg xmlns="http://www.w3.org/2000/svg" width="110" height="20" class="main-header__logo" viewBox="0 0 653.08 116.24"><path d="M1790.94 21.797c-6.47-6.473-14.13-9.688-23.01-9.688h-92.03c-8.89 0-16.55 3.215-23 9.688-6.48 6.453-9.69 14.113-9.69 23.008V352.37c0 50.043-11.71 89.192-35.12 117.457-23.42 28.25-57.72 42.383-102.92 42.383-41.99 0-75.5-14.531-100.51-43.594-25.03-29.062-37.54-67.808-37.54-116.246V44.805c0-8.895-3.23-16.555-9.68-23.008-6.47-6.473-14.14-9.688-23.01-9.688h-92.03c-8.89 0-16.56 3.215-23.01 9.688-6.47 6.453-9.69 14.113-9.69 23.008v794.347c0 8.875 3.22 16.539 9.69 23.008 6.45 6.453 14.12 9.692 23.01 9.692h92.03c8.87 0 16.54-3.239 23.01-9.692 6.45-6.469 9.68-14.133 9.68-23.008V581.23c48.44 48.438 106.56 72.657 174.37 72.657 91.22 0 157.21-26.246 197.99-78.711 40.75-52.481 61.15-120.692 61.15-204.645V44.805c0-8.895-3.24-16.555-9.69-23.008m138.02 610.297c6.45 6.445 14.12 9.683 23.01 9.683H2044c8.87 0 16.54-3.238 23.01-9.683 6.45-6.473 9.68-14.137 9.68-23.008V301.512c0-50.856 10.69-90.211 32.09-118.059q32.07-41.782 99.9-41.781c41.97 0 74.47 14.324 97.48 42.992 23.01 28.645 34.51 67.602 34.51 116.848v307.574c0 8.871 3.22 16.535 9.69 23.008 6.45 6.445 14.11 9.683 23 9.683h92.03c8.88 0 16.54-3.238 23.01-9.683 6.45-6.473 9.69-14.137 9.69-23.008V44.805c0-8.895-3.24-16.555-9.69-23.008-6.47-6.473-14.13-9.688-23.01-9.688h-92.03c-8.89 0-16.55 3.215-23 9.688-6.47 6.453-9.69 14.113-9.69 23.008v27.847C2293.84 24.22 2237.74 0 2172.35 0c-91.23 0-156.2 26.035-194.95 78.102-38.75 52.066-58.13 120.484-58.13 205.25v325.734c0 8.871 3.22 16.535 9.69 23.008M3210.09 21.797c-6.47-6.473-14.14-9.688-23.01-9.688h-92.03c-8.89 0-16.55 3.215-23.01 9.688-6.47 6.453-9.68 14.113-9.68 23.008V352.37c0 50.043-11.71 89.192-35.12 117.457-23.42 28.25-57.73 42.383-102.92 42.383-41.99 0-75.5-14.531-100.51-43.594-25.03-29.062-37.54-67.808-37.54-116.246V44.805c0-8.895-3.23-16.555-9.68-23.008-6.48-6.473-14.14-9.688-23.01-9.688h-92.03c-8.89 0-16.56 3.215-23.01 9.688-6.47 6.453-9.69 14.113-9.69 23.008v564.281c0 8.871 3.22 16.535 9.69 23.008 6.45 6.445 14.12 9.683 23.01 9.683h92.03c8.87 0 16.53-3.238 23.01-9.683 6.45-6.473 9.68-14.137 9.68-23.008V581.23c48.44 48.438 106.56 72.657 174.37 72.657 91.22 0 157.21-26.246 197.98-78.711 40.76-52.481 61.15-120.692 61.15-204.645V44.805c0-8.895-3.23-16.555-9.68-23.008m361.45 156.808c14.11-14.128 38.54-21.187 73.26-21.187h73.86c8.88 0 16.54-3.234 23.01-9.688 6.45-6.472 9.69-14.136 9.69-23.007V44.805c0-8.895-3.24-16.555-9.69-23.008-6.47-6.473-14.13-9.688-23.01-9.688h-89.6c-76.71 0-135.23 18.77-175.59 56.309-40.37 37.535-60.54 93.426-60.54 167.707v260.344h-79.92c-8.89 0-16.56 3.219-23.01 9.687-6.47 6.449-9.68 14.114-9.68 23.008v79.922c0 8.871 3.21 16.535 9.68 23.008 6.45 6.445 14.12 9.683 23.01 9.683h79.92v197.375c0 8.875 3.21 16.539 9.69 23.008 6.45 6.453 14.11 9.692 23 9.692h92.03c8.88 0 16.54-3.239 23.01-9.692 6.45-6.469 9.69-14.133 9.69-23.008V641.777h156.2c8.88 0 16.54-3.238 23.01-9.683 6.45-6.473 9.69-14.137 9.69-23.008v-79.922c0-8.894-3.24-16.559-9.69-23.008-6.47-6.468-14.13-9.687-23.01-9.687h-156.2V239.758c0-26.641 7.05-47.035 21.19-61.153m661.75 218.571c-8.89 74.262-53.7 111.398-134.41 111.398-41.98 0-74.89-11.308-98.69-33.902-23.82-22.606-37.35-48.434-40.57-77.496zm21.8 214.933c45.2-27.847 80.1-65.199 104.74-112.007 24.61-46.832 36.93-98.082 36.93-153.782v-54.496q0-13.328-9.69-23.008c-6.47-6.468-14.13-9.683-23-9.683h-404.45c0-34.723 13.72-62.36 41.18-82.949 27.43-20.586 60.13-30.875 98.08-30.875 44.39 0 78.71 9.269 102.93 27.851 8.87 6.449 16.14 10.899 21.79 13.317 5.64 2.421 13.32 3.632 23.01 3.632h96.87q13.305 0 23.01-9.082c6.45-6.05 9.68-13.129 9.68-21.187 0-16.957-11.1-38.356-33.29-64.184-22.22-25.844-54.31-48.242-96.27-67.203C4204.62 9.496 4155.37 0 4098.88 0c-59.75 0-112.01 13.719-156.81 41.168-44.81 27.434-79.32 65.789-103.53 115.035q-36.33 73.848-36.33 170.738 0 90.819 36.33 165.289c24.21 49.645 58.91 89 104.13 118.063q67.8 43.593 156.21 43.594 88.38 0 156.21-41.778m426.83-147.73c-21.4-21.399-32.09-56.309-32.09-104.742V44.805c0-8.895-3.24-16.555-9.69-23.008-6.47-6.473-14.13-9.688-23.01-9.688h-92.02c-8.9 0-16.56 3.215-23.01 9.688-6.47 6.453-9.69 14.113-9.69 23.008v564.281c0 8.871 3.22 16.535 9.69 23.008 6.45 6.445 14.11 9.683 23.01 9.683h92.02c8.88 0 16.54-3.238 23.01-9.683 6.45-6.473 9.69-14.137 9.69-23.008V581.23c21.79 20.981 44.8 36.329 69.02 46.016 24.22 9.688 54.89 14.531 92.03 14.531h54.49c8.87 0 16.53-3.238 23.01-9.683 6.45-6.473 9.68-14.137 9.68-23.008v-79.922c0-8.894-3.23-16.559-9.68-23.008-6.48-6.468-14.14-9.687-23.01-9.687h-78.71c-48.44 0-83.36-10.707-104.74-32.09M537.324 496.277c-18.015-5.183-37.879-5.269-56.453-4.484-21.605.914-44.484 3.645-64.433 12.512-16.415 7.293-29.583 20.453-22.692 39.461 4.859 13.406 15.629 25.382 28.078 32.132 13.996 7.594 29.375 6.36 43.379-.503 15.723-7.707 28.801-20.243 40.656-32.891 6.215-6.633 12.145-13.52 17.996-20.473 2.7-3.199 21.008-21.484 13.469-25.754m299.461-6.535c-27.707 6.446-60.445 4.137-88.222 8.578-43.754 7-108.926 58.016-144.254 109.871-24.547 36.032-36.262 72.731-55.028 117.45-13.097 31.214-41.656 129.941-81.593 83.73-16.446-19.031-34.856-81.68-48.305-80.797-9.961-2.316-11.586 17.098-14.738 25.395-5.723 15.066-8.758 32.496-16.426 46.703-6.129 11.355-14.176 24.957-26.5 30.476-21.957 11.29-48.43-22.738-61.567-63.089-5.617-21.637-43.379-63.579-59.824-73.723-74.824-46.172-225-94.816-240.316-256.793-.063-.672 0-2.715 2.543-.875 17.91 12.969 221.058 159.285 90.683-123.539C13.368 139.855 399 29.512 418.824 29.063c2.672-.06 2.477 1.156 2.567 1.957 30.773 276.554 334.781 247.441 405.578 313.675 70.16 65.629 71.59 129.157 9.816 145.047" style="stroke:none" transform="matrix(.13333 0 0 -.13333 0 116.24)"/></svg>