<svg xmlns="http://www.w3.org/2000/svg" width="92" height="32" fill="none"><path fill="#151417" d="M33.45 7.6h-3.372v17.082h9.886v-3.225h-6.515zm15.421 11.471c0 2.121-1.147 3.025-2.684 3.025-1.417 0-2.413-.855-2.413-2.516v-7.1h-3.149v7.49c0 3.246 2.024 5.053 4.61 5.053 1.634 0 2.906-.611 3.636-1.71v1.37h3.15V12.48h-3.15zm8.053-3.129c0-.66.633-1 1.417-1 .904 0 1.586.464 1.953 1.244l2.684-1.467c-.952-1.683-2.662-2.586-4.637-2.586-2.516 0-4.637 1.39-4.637 3.88 0 4.296 6.298 3.316 6.298 5.102 0 .709-.681 1.05-1.683 1.05-1.217 0-2.05-.585-2.391-1.586l-2.733 1.537c.877 1.878 2.684 2.906 5.124 2.906 2.614 0 4.903-1.272 4.903-3.907-.005-4.486-6.299-3.366-6.299-5.173m14.323-3.802c-1.634 0-2.905.61-3.636 1.71V7.6h-3.15v17.082h3.15v-6.59c0-2.122 1.147-3.025 2.684-3.025 1.418 0 2.413.855 2.413 2.516v7.1h3.15v-7.495c.005-3.247-2.024-5.049-4.61-5.049m15.789.341v1.439c-.876-1.099-2.196-1.78-3.977-1.78-3.246 0-5.93 2.808-5.93 6.444s2.684 6.445 5.93 6.445c1.78 0 3.1-.682 3.977-1.78v1.439h3.15V12.48zm-3.392 9.54c-1.927 0-3.366-1.392-3.366-3.442s1.44-3.442 3.366-3.442c1.953 0 3.392 1.391 3.392 3.442 0 2.05-1.439 3.441-3.392 3.441"/><path fill="#151417" fill-rule="evenodd" d="M20.634 9.311c0 .496-.066.948-.186 1.358 5.103 2.999 2.476 12.756 1.707 15.241-.02.069-.139.043-.137-.03.025-.824-.103-1.982-.67-3.096q.027.22.027.447a3.84 3.84 0 1 1-7.51-1.131l-.097-.025a3 3 0 0 0-.611-.097c-.155 0-.38.042-.591.095l-.11.03a3.84 3.84 0 1 1-7.481 1.601c-.396 1.576-.406 3.286-.338 5.237.003.06-.076.087-.106.035-1.709-2.967-3.283-9.11-2.144-13.64 1.018-4.054 3.87-6.007 5.662-6.677a6.31 6.31 0 0 1 12.584.652M7.14 19.759a3.837 3.837 0 0 1 4.905 1.444 7 7 0 0 1 .284-.079c.225-.056.546-.124.827-.124s.61.068.842.125c.108.027.204.053.277.074a3.84 3.84 0 0 1 3.702-1.784c-1.321-1.565-1.837-3.75-2.023-5.123-4.414 1.91-7.143 3.66-8.814 5.467m13.049 3.472a2.655 2.655 0 1 1-5.31.001 2.655 2.655 0 0 1 5.31-.001m-8.75 0a2.655 2.655 0 1 1-5.311.001 2.655 2.655 0 0 1 5.31 0" clip-rule="evenodd"/></svg>