<svg xmlns="http://www.w3.org/2000/svg" width="123" height="28" fill="none"><path fill="#415896" d="M41.815 15.477h-2.083v4.089h-1.877V8.92h3.792c1.242 0 2.2.281 2.873.83.673.55 1.01 1.355 1.01 2.39 0 .716-.169 1.304-.518 1.79-.35.485-.828.843-1.45 1.111l2.42 4.434v.09h-2.005zm-2.083-1.483h1.928c.634 0 1.126-.153 1.475-.473s.531-.74.531-1.29c0-.575-.168-1.01-.492-1.33-.323-.306-.815-.472-1.475-.485h-1.98zm6.872 1.546c0-.78.155-1.47.466-2.095.31-.627.75-1.1 1.307-1.432q.834-.498 1.941-.498c1.074 0 1.954.345 2.627 1.035s1.036 1.597 1.087 2.735l.013.421c0 .78-.155 1.483-.453 2.096a3.35 3.35 0 0 1-1.307 1.431c-.57.333-1.216.499-1.954.499q-1.689 0-2.718-1.112c-.673-.741-1.022-1.738-1.022-2.965v-.115zm1.799.154q0 1.226.505 1.916c.336.46.815.69 1.423.69s1.074-.23 1.424-.702c.336-.473.504-1.15.504-2.058 0-.805-.168-1.431-.517-1.904-.35-.473-.816-.703-1.424-.703q-.873 0-1.398.69c-.336.473-.517 1.163-.517 2.07M58.666 18.3c.453 0 .815-.127 1.113-.383a1.33 1.33 0 0 0 .479-.958h1.695a2.7 2.7 0 0 1-.466 1.38 2.97 2.97 0 0 1-1.19 1.01 3.66 3.66 0 0 1-1.618.37c-1.126 0-2.006-.358-2.666-1.073-.66-.716-.984-1.7-.984-2.965v-.179c0-1.201.324-2.172.97-2.888.648-.728 1.54-1.086 2.667-1.086.957 0 1.734.268 2.33.818.595.55.918 1.265.944 2.16h-1.695c-.026-.448-.181-.831-.466-1.112-.298-.294-.673-.435-1.126-.435-.583 0-1.036.205-1.346.626s-.479 1.048-.479 1.891v.282q0 1.284.466 1.916c.323.41.776.627 1.372.627m7.054-2.121-.803.804v2.582h-1.8V8.346h1.8v6.479l.556-.69 2.213-2.467h2.161l-2.976 3.297 3.287 4.613h-2.084zm8.489 3.54c-1.139 0-2.058-.359-2.77-1.062-.711-.702-1.06-1.648-1.06-2.837v-.217c0-.792.154-1.495.465-2.121a3.56 3.56 0 0 1 1.294-1.457 3.47 3.47 0 0 1 1.864-.524q1.63 0 2.524 1.035.893 1.036.893 2.914v.715H72.19c.052.652.272 1.176.66 1.547.388.383.88.575 1.463.575.828 0 1.5-.332 2.019-.984l.97.907c-.323.473-.75.844-1.281 1.1-.544.28-1.152.408-1.812.408m-.22-6.774c-.492 0-.893.166-1.19.511-.298.345-.493.818-.583 1.432h3.43v-.128c-.04-.6-.195-1.048-.48-1.355-.284-.306-.672-.46-1.177-.46m6.885-3.206v1.916h1.41v1.317h-1.41v4.409c0 .306.065.523.181.651.117.128.337.205.647.205.207 0 .415-.026.635-.077v1.38a4.4 4.4 0 0 1-1.191.166c-1.385 0-2.07-.754-2.07-2.262V12.96h-1.32v-1.316h1.32V9.726zm6.716 5.738h-2.083v4.089h-1.876V8.92h3.792c1.242 0 2.2.281 2.873.83.673.55 1.01 1.355 1.01 2.39 0 .716-.169 1.304-.518 1.79-.35.485-.829.843-1.45 1.111l2.42 4.434v.09h-2.006zm-2.083-1.483h1.929c.634 0 1.125-.153 1.475-.473s.53-.74.53-1.29c0-.575-.168-1.01-.491-1.33-.324-.306-.816-.472-1.476-.485h-1.98zm10.742 5.726c-1.139 0-2.058-.359-2.77-1.062-.711-.702-1.06-1.648-1.06-2.837v-.217c0-.792.154-1.495.465-2.121a3.56 3.56 0 0 1 1.294-1.457 3.47 3.47 0 0 1 1.864-.524q1.63 0 2.524 1.035.893 1.036.893 2.914v.715H94.23c.052.652.272 1.176.66 1.547.388.383.88.575 1.463.575.828 0 1.5-.332 2.019-.984l.97.907c-.323.473-.75.844-1.281 1.1-.544.28-1.139.408-1.812.408m-.207-6.774c-.492 0-.893.166-1.19.511-.298.345-.493.818-.583 1.432h3.43v-.128c-.04-.6-.195-1.048-.48-1.355-.297-.306-.685-.46-1.177-.46m9.409 6.621c-.078-.154-.143-.396-.207-.741q-.855.88-2.097.881c-.802 0-1.462-.23-1.967-.677a2.16 2.16 0 0 1-.764-1.687c0-.843.311-1.495.945-1.942s1.54-.678 2.718-.678h1.1V14.2c0-.41-.117-.742-.349-.984-.233-.243-.583-.371-1.062-.371q-.62 0-1.009.307t-.388.766h-1.799c0-.434.142-.843.44-1.214.284-.383.686-.677 1.19-.881.505-.218 1.062-.32 1.683-.32.932 0 1.682.23 2.239.703.556.46.841 1.125.854 1.968v3.565c0 .716.103 1.278.298 1.7v.128zm-1.98-1.278a2.1 2.1 0 0 0 .996-.256 1.75 1.75 0 0 0 .712-.69v-1.495h-.971c-.66 0-1.164.115-1.501.345s-.505.55-.505.971c0 .345.117.614.35.818.22.217.53.307.919.307m8.49.012c.452 0 .815-.127 1.113-.383.297-.255.452-.575.478-.958h1.696a2.7 2.7 0 0 1-.466 1.38 2.97 2.97 0 0 1-1.191 1.01 3.66 3.66 0 0 1-1.618.37c-1.125 0-2.006-.358-2.666-1.073-.66-.716-.983-1.7-.983-2.965v-.179c0-1.201.323-2.172.97-2.888.648-.728 1.541-1.086 2.667-1.086.957 0 1.734.268 2.329.818s.919 1.265.945 2.16h-1.696c-.025-.448-.181-.831-.465-1.112-.298-.294-.673-.435-1.126-.435-.583 0-1.036.205-1.346.626s-.479 1.048-.479 1.891v.282q0 1.284.466 1.916c.323.41.776.627 1.372.627m6.212-5.776c.582-.678 1.333-1.01 2.226-1.01 1.708 0 2.575.958 2.601 2.888v5.163h-1.799v-5.1c0-.549-.116-.932-.362-1.162-.233-.23-.596-.345-1.049-.345-.724 0-1.255.32-1.617.946v5.648h-1.799V8.333h1.799zM26.79 7.58c.052-.129.103-.27.155-.397 1.178-3.016 1.372-5.674 1.41-6.415a.68.68 0 0 0-.22-.55.75.75 0 0 0-.556-.217c-.75.039-3.442.243-6.497 1.393a6 6 0 0 0-.414.166A14.2 14.2 0 0 0 14.171.014C6.341.014 0 6.276 0 14.007S6.342 28 14.171 28c7.83 0 14.172-6.262 14.172-13.993a13.4 13.4 0 0 0-1.553-6.428m.828-7.03c.104 0 .194.09.194.192-.039.729-.233 3.297-1.372 6.224a14 14 0 0 0-5.125-5.06C24.292.78 26.893.588 27.618.55"/><path fill="#fff" d="M27.618.55c-1.462.065-10.47.78-14.805 8.294-2.42-.651-3.197.397-3.197.397L6.16 12.653l4.168.447a.73.73 0 0 1 .414.191.67.67 0 0 1 .181.614c-.117.588-.22 1.214-.298 1.853l.88.869.88.869a21 21 0 0 0 1.877-.294.69.69 0 0 1 .621.179.64.64 0 0 1 .194.409l.453 4.115L19 18.518s1.061-.767.4-3.156c7.598-4.294 8.323-13.176 8.4-14.62.026-.102-.064-.191-.181-.191m-7.442 7.54a1.86 1.86 0 0 1 0-2.645 1.915 1.915 0 0 1 2.68 0 1.86 1.86 0 0 1 0 2.645 1.915 1.915 0 0 1-2.68 0"/><path fill="#fff" d="M12.813 8.844c-2.42-.651-3.197.396-3.197.396L6.16 12.652l4.168.448c.155.013.297.09.414.191a.67.67 0 0 1 .181.614c-.117.588-.22 1.214-.298 1.853l.88.869.88.869a21 21 0 0 0 1.877-.294.69.69 0 0 1 .621.179.64.64 0 0 1 .194.409l.453 4.115L19 18.518s1.061-.767.4-3.156c7.598-4.294 8.323-13.176 8.4-14.62zm7.363-.754a1.86 1.86 0 0 1 0-2.645 1.915 1.915 0 0 1 2.68 0 1.86 1.86 0 0 1 0 2.645 1.915 1.915 0 0 1-2.68 0"/><path fill="#F5BC41" d="m12.398 17.509-.88-.87-.88-.868-8.23 5.98c.504.754 1.1 1.47 1.785 2.134a15 15 0 0 0 2.161 1.764z"/></svg>