<svg xmlns="http://www.w3.org/2000/svg" width="116" height="30" fill="none"><path fill="#7D62EC" d="M3.621 27.226v-5.321c3.295 1.52 6.084 2.28 8.111 2.28 2.662 0 3.93-1.014 3.93-2.914 0-1.014-.634-1.774-1.775-2.66-.507-.38-1.648-1.014-3.422-1.774q-2.662-1.14-3.802-2.28c-1.775-1.521-2.788-3.548-2.788-5.829s.76-4.18 2.408-5.574S10.21 1 13.127 1c2.408 0 5.07.633 8.11 1.9l-1.9 4.435c-2.662-1.014-4.563-1.647-5.957-1.647-1.394.126-2.408.38-2.915.887-.634.506-.887 1.013-.887 1.647q0 .95.38 1.52t1.14 1.14c.508.38 1.902 1.014 4.056 2.154 2.282 1.014 3.802 2.154 4.817 3.42 1.013 1.268 1.394 2.661 1.394 4.435 0 2.407-.888 4.434-2.662 5.828-1.774 1.393-4.182 2.154-7.224 2.154s-5.577-.507-7.858-1.647M25.8 28.493V7.715h4.31l.76 2.66h.253c1.268-2.027 3.422-3.04 6.338-3.04 2.407 0 4.182.633 5.45 1.9s2.027 3.294 2.027 5.701v13.557h-5.703V16.457q0-2.28-.76-3.421c-.508-.76-1.395-1.14-2.535-1.14-1.521 0-2.789.506-3.422 1.52-.634 1.014-1.014 2.787-1.014 5.194v9.756zm23.7-10.389c0-3.421.888-6.082 2.662-7.855 1.775-1.9 4.183-2.914 7.478-2.914 2.028 0 3.802.38 5.196 1.267 1.521.886 2.662 2.153 3.549 3.674a13.5 13.5 0 0 1 1.267 5.701q0 5.13-2.661 7.982c-1.775 1.9-4.31 2.914-7.478 2.914-2.028 0-3.802-.38-5.323-1.267-1.52-.887-2.661-2.154-3.549-3.801q-1.14-2.47-1.14-5.701m6.718-4.688c-.634 1.014-1.014 2.534-1.014 4.561s.38 3.674 1.014 4.688c.633 1.013 1.774 1.52 3.295 1.52s2.662-.507 3.295-1.52c.634-1.014 1.014-2.534 1.014-4.688 0-2.027-.38-3.547-1.014-4.561-.633-1.014-1.774-1.52-3.295-1.52s-2.535.506-3.295 1.52M70.54 7.715h5.956c1.7 4.938 5.07 14.823 5.07 14.823s3.361-10.46 4.816-14.823h5.957l-8.112 20.778h-5.83z" class="logo-path-left"/><path fill="#DDCDFF" d="m92.593 28.493 3.042-13.81h3.675l-2.915 13.81zm3.549-17.103c0-.76.253-1.267.634-1.647.38-.38.887-.507 1.647-.507 1.014 0 1.648.507 1.648 1.52 0 .634-.127 1.14-.507 1.647-.38.38-.76.634-1.52.634-1.268-.127-1.902-.634-1.902-1.647m6.083 15.963c-1.013-1.014-1.394-2.28-1.394-3.927s.254-3.168.887-4.561c.634-1.394 1.395-2.408 2.535-3.168s2.408-1.14 4.056-1.14c1.521 0 2.788.507 3.675 1.52.888 1.014 1.395 2.28 1.395 4.054s-.254 3.295-.888 4.561c-.633 1.267-1.394 2.408-2.534 3.168-1.141.76-2.408 1.14-3.929 1.14s-2.789-.76-3.803-1.647m2.282-3.927q0 2.28 1.901 2.28c.634 0 1.141-.253 1.647-.76.507-.507.888-1.267 1.141-2.154.254-.887.38-1.9.38-2.914 0-1.647-.633-2.407-1.774-2.407-.634 0-1.141.253-1.648.76s-.887 1.267-1.14 2.154c-.254 1.013-.507 2.027-.507 3.04" class="logo-path-right" opacity=".5"/></svg>