<svg xmlns="http://www.w3.org/2000/svg" width="1200" height="600" fill="none"><path fill="url(#a)" d="M0 0h1200v600H0z"/><g transform="translate(80 100)"><rect width="70" height="70" fill="url(#b)" rx="18"/><circle cx="35" cy="35" r="16" fill="#fff"/><text x="35" y="44" fill="#2563eb" font-family="Inter, Arial, sans-serif" font-size="22" font-weight="700" text-anchor="middle">@</text><text x="90" y="52" fill="#fff" font-family="Inter, sans-serif" font-size="42" font-weight="700" letter-spacing="-.02em">FindForce</text></g><text y="180" fill="#fff" font-family="Inter, sans-serif" font-size="58" font-weight="800" letter-spacing="-.02em" transform="translate(80 80)">Find Verified B2B Emails</text><text y="240" fill="#fff" font-family="Inter, sans-serif" font-size="58" font-weight="800" letter-spacing="-.02em" transform="translate(80 80)">in 1 Click</text><text y="300" fill="rgba(255, 255, 255, 0.9)" font-family="Inter, sans-serif" font-size="28" font-weight="500" transform="translate(80 80)">Chrome extension for sales professionals</text><g transform="translate(80 440)"><rect width="300" height="60" fill="rgba(34, 197, 94, 0.9)" rx="30"/><text x="150" y="40" fill="#fff" font-family="Inter, sans-serif" font-size="22" font-weight="700" text-anchor="middle">Get Access</text></g><g fill="rgba(255, 255, 255, 0.8)" font-family="Inter, sans-serif" font-size="18" font-weight="600"><text transform="translate(80 530)">✓ 95%+ Accuracy</text><text x="180" transform="translate(80 530)">✓ 500+ Users</text><text x="320" transform="translate(80 530)">✓ GDPR Compliant</text></g><g transform="translate(850 150)"><circle cx="100" cy="100" r="80" fill="rgba(255, 255, 255, 0.1)" stroke="rgba(255, 255, 255, 0.2)" stroke-width="2"/><circle cx="100" cy="100" r="50" fill="rgba(255, 255, 255, 0.15)" stroke="rgba(255, 255, 255, 0.3)" stroke-width="2"/><text x="100" y="110" fill="#fff" font-family="Inter, sans-serif" font-size="32" font-weight="700" text-anchor="middle">@</text></g><defs><linearGradient id="a" x1="0%" x2="100%" y1="0%" y2="100%"><stop offset="0%" style="stop-color:#1e3a8a"/><stop offset="50%" style="stop-color:#2563eb"/><stop offset="100%" style="stop-color:#3b82f6"/></linearGradient><linearGradient id="b" x1="0%" x2="100%" y1="0%" y2="100%"><stop offset="0%" style="stop-color:#60a5fa"/><stop offset="50%" style="stop-color:#3b82f6"/><stop offset="100%" style="stop-color:#2563eb"/></linearGradient></defs></svg>