<svg xmlns="http://www.w3.org/2000/svg" viewBox="0 0 1200 630"><defs><linearGradient id="a" x1="0%" x2="100%" y1="0%" y2="100%"><stop offset="0%" style="stop-color:#2563eb"/><stop offset="100%" style="stop-color:#1d4ed8"/></linearGradient><linearGradient id="d" x1="0%" x2="100%" y1="0%" y2="100%"><stop offset="0%" style="stop-color:#1e293b"/><stop offset="100%" style="stop-color:#0f172a"/></linearGradient><linearGradient id="b" x1="0%" x2="100%" y1="0%" y2="0%"><stop offset="0%" style="stop-color:#039"/><stop offset="50%" style="stop-color:#0052cc"/><stop offset="100%" style="stop-color:#039"/></linearGradient><filter id="c"><feDropShadow dx="0" dy="2" flood-opacity=".3" stdDeviation="2"/></filter></defs><path fill="#fef2f2" d="M0 80h600v430H0z"/><path fill="#f0f9ff" d="M600 80h600v430H600z"/><path fill="#fff" d="M580 80h40v430h-40Z" opacity=".8"/><text x="300" y="160" fill="#ef4444" font-family="system-ui, -apple-system, sans-serif" font-size="36" font-weight="700" text-anchor="middle">
      Apollo.io
    </text><circle cx="300" cy="200" r="25" fill="none" stroke="#ef4444" stroke-width="3"/><text x="300" y="210" fill="#ef4444" font-family="system-ui, -apple-system, sans-serif" font-size="32" font-weight="700" text-anchor="middle">!</text><g fill="#dc2626" font-family="system-ui, -apple-system, sans-serif" font-size="20" font-weight="600" text-anchor="middle"><text x="300" y="260">❌ LinkedIn Banned</text><text x="300" y="295">❌ GDPR Violations</text><text x="300" y="330">❌ 3-Week Support</text><text x="300" y="365">❌ €7,540/Year</text><text x="300" y="400">❌ 60% Accuracy</text></g><g transform="translate(900 110)"><rect width="70" height="50" x="-35" y="-25" fill="url(#a)" rx="10"/><text y="8" fill="#fff" font-family="system-ui, -apple-system, sans-serif" font-size="28" font-weight="700" text-anchor="middle">@</text></g><text x="900" y="170" fill="#1e40af" font-family="system-ui, -apple-system, sans-serif" font-size="36" font-weight="700" text-anchor="middle">
      FindForce
    </text><circle cx="900" cy="200" r="25" fill="#22c55e" opacity=".2"/><path fill="none" stroke="#22c55e" stroke-linecap="round" stroke-linejoin="round" stroke-width="4" d="m888 200 8 8 16-16"/><g fill="#059669" font-family="system-ui, -apple-system, sans-serif" font-size="20" font-weight="600" text-anchor="middle"><text x="900" y="260">✓ GDPR Compliant</text><text x="900" y="295">✓ EU Infrastructure</text><text x="900" y="330">✓ 2-Hour Support</text><text x="900" y="365">✓ €49/Month Flat</text><text x="900" y="400">✓ 95% Accuracy</text></g><path fill="url(#b)" d="M0 0h1200v80H0z"/><path fill="#FC0" d="m520 13 4 8 8 1-6 6 1 8-7-4-7 4 1-8-6-6 8-1zm40 0 4 8 8 1-6 6 1 8-7-4-7 4 1-8-6-6 8-1zm40 0 4 8 8 1-6 6 1 8-7-4-7 4 1-8-6-6 8-1zm40 0 4 8 8 1-6 6 1 8-7-4-7 4 1-8-6-6 8-1zm40 0 4 8 8 1-6 6 1 8-7-4-7 4 1-8-6-6 8-1z"/><text x="600" y="65" fill="#fff" filter="url(#c)" font-family="system-ui, -apple-system, sans-serif" font-size="28" font-weight="700" text-anchor="middle">
    Apollo.io Alternative for European Companies
  </text><path fill="url(#d)" d="M0 510h1200v120H0z"/><g fill="#fff" font-family="system-ui, -apple-system, sans-serif" text-anchor="middle"><text x="300" y="550" font-size="24" font-weight="700">92% Cost Savings</text><text x="600" y="550" font-size="24" font-weight="700">500+ Companies Switched</text><text x="900" y="550" font-size="24" font-weight="700">2025 #1 Choice</text><text x="600" y="590" font-size="18" opacity=".9">Join European sales teams making the switch today</text></g><path fill="#039" d="M1095 555h70v30h-70z"/><path fill="#FC0" d="m1120 565.2 1.6 3.2 3.2.4-2.4 2.4.4 3.2-2.8-1.6-2.8 1.6.4-3.2-2.4-2.4 3.2-.4zm10 0 1.6 3.2 3.2.4-2.4 2.4.4 3.2-2.8-1.6-2.8 1.6.4-3.2-2.4-2.4 3.2-.4zm10 0 1.6 3.2 3.2.4-2.4 2.4.4 3.2-2.8-1.6-2.8 1.6.4-3.2-2.4-2.4 3.2-.4z"/></svg>