<svg xmlns="http://www.w3.org/2000/svg" viewBox="0 0 1200 630"><defs><linearGradient id="e" x1="0%" x2="100%" y1="0%" y2="100%"><stop offset="0%" style="stop-color:#2563eb"/><stop offset="100%" style="stop-color:#1d4ed8"/></linearGradient><linearGradient id="f" x1="0%" x2="100%" y1="0%" y2="100%"><stop offset="0%" style="stop-color:#3b82f6"/><stop offset="50%" style="stop-color:#2563eb"/><stop offset="100%" style="stop-color:#1d4ed8"/></linearGradient><linearGradient id="a" x1="0%" x2="100%" y1="0%" y2="100%"><stop offset="0%" style="stop-color:#eff6ff"/><stop offset="100%" style="stop-color:#dbeafe"/></linearGradient><linearGradient id="g" x1="0%" x2="100%" y1="0%" y2="100%"><stop offset="0%" style="stop-color:#22c55e"/><stop offset="100%" style="stop-color:#16a34a"/></linearGradient><linearGradient id="d" x1="0%" x2="100%" y1="0%" y2="100%"><stop offset="0%" style="stop-color:#ef4444"/><stop offset="100%" style="stop-color:#dc2626"/></linearGradient><linearGradient id="i" x1="0%" x2="100%" y1="0%" y2="100%"><stop offset="0%" style="stop-color:#039"/><stop offset="100%" style="stop-color:#0052cc"/></linearGradient><filter id="c" width="200%" height="200%" x="-50%" y="-50%"><feDropShadow dx="0" dy="4" flood-opacity=".15" stdDeviation="8"/></filter><filter id="h" width="200%" height="200%" x="-50%" y="-50%"><feDropShadow dx="0" dy="2" flood-opacity=".1" stdDeviation="4"/></filter></defs><path fill="url(#a)" d="M0 0h1200v630H0z"/><pattern id="b" width="40" height="40" x="0" y="0" patternUnits="userSpaceOnUse"><circle cx="20" cy="20" r="1" fill="#2563eb" opacity=".1"/></pattern><path fill="url(#b)" d="M0 0h1200v630H0z"/><rect width="500" height="400" x="50" y="150" fill="#fff" filter="url(#c)" rx="20"/><rect width="500" height="80" x="50" y="150" fill="url(#d)" rx="20"/><text x="300" y="200" fill="#fff" font-family="system-ui, -apple-system, sans-serif" font-size="32" font-weight="700" text-anchor="middle">
      Apollo.io
    </text><g fill="#374151" font-family="system-ui, -apple-system, sans-serif" font-size="20"><circle cx="90" cy="280" r="8" fill="#ef4444"/><text x="90" y="285" fill="#fff" font-size="14" font-weight="700" text-anchor="middle">✕</text><text x="120" y="287">LinkedIn banned in March 2025</text><circle cx="90" cy="330" r="8" fill="#ef4444"/><text x="90" y="335" fill="#fff" font-size="14" font-weight="700" text-anchor="middle">✕</text><text x="120" y="337">Sold data to 170 companies</text><circle cx="90" cy="380" r="8" fill="#ef4444"/><text x="90" y="385" fill="#fff" font-size="14" font-weight="700" text-anchor="middle">✕</text><text x="120" y="387">3-week support response times</text><circle cx="90" cy="430" r="8" fill="#ef4444"/><text x="90" y="435" fill="#fff" font-size="14" font-weight="700" text-anchor="middle">✕</text><text x="120" y="437">€7,540/year hidden costs</text><circle cx="90" cy="480" r="8" fill="#ef4444"/><text x="90" y="485" fill="#fff" font-size="14" font-weight="700" text-anchor="middle">✕</text><text x="120" y="487">60% accuracy for EU data</text></g><rect width="500" height="400" x="650" y="150" fill="#fff" filter="url(#c)" rx="20"/><rect width="500" height="80" x="650" y="150" fill="url(#e)" rx="20"/><rect width="50" height="50" x="770" y="165" fill="url(#f)" rx="10"/><circle cx="795" cy="190" r="18" fill="#fff"/><text x="795" y="198" fill="#2563eb" font-family="system-ui, -apple-system, sans-serif" font-size="24" font-weight="700" text-anchor="middle">@</text><text x="840" y="200" fill="#fff" font-family="system-ui, -apple-system, sans-serif" font-size="28" font-weight="700">FindForce</text><g fill="#374151" font-family="system-ui, -apple-system, sans-serif" font-size="20"><circle cx="690" cy="280" r="8" fill="url(#g)"/><text x="690" y="285" fill="#fff" font-size="14" font-weight="700" text-anchor="middle">✓</text><text x="720" y="287">100% GDPR compliant</text><circle cx="690" cy="330" r="8" fill="url(#g)"/><text x="690" y="335" fill="#fff" font-size="14" font-weight="700" text-anchor="middle">✓</text><text x="720" y="337">EU-only infrastructure</text><circle cx="690" cy="380" r="8" fill="url(#g)"/><text x="690" y="385" fill="#fff" font-size="14" font-weight="700" text-anchor="middle">✓</text><text x="720" y="387">2-hour support response</text><circle cx="690" cy="430" r="8" fill="url(#g)"/><text x="690" y="435" fill="#fff" font-size="14" font-weight="700" text-anchor="middle">✓</text><text x="720" y="437">€49/month flat rate</text><circle cx="690" cy="480" r="8" fill="url(#g)"/><text x="690" y="485" fill="#fff" font-size="14" font-weight="700" text-anchor="middle">✓</text><text x="720" y="487">95% accuracy guaranteed</text></g><circle cx="600" cy="350" r="40" fill="#fff" filter="url(#h)"/><text x="600" y="360" fill="#6b7280" font-family="system-ui, -apple-system, sans-serif" font-size="24" font-weight="700" text-anchor="middle">VS</text><path fill="url(#i)" d="M0 0h1200v100H0z" opacity=".95"/><g fill="#FC0"><path d="m60 20 3 21h9l-9 6 3 12-6-9-6 9 3-12-9-6h9Z"/><path d="m75 24.02-7.902 19.686 7.794 4.5-10.794.696-3.402 11.892L60 50l-9.696 4.794 8.598-8.892-4.794-9.696 7.794 4.5Z"/><path d="M85.98 35 69.295 48.098l4.5 7.794-9.696-4.794-8.892 8.598L60 50l-10.794-.696 11.892-3.402.696-10.794 4.5 7.794Z"/><path d="m90 50-21 3v9l-6-9-12 3 9-6-9-6 12 3 6-9v9Z"/><path d="m85.98 65-19.686-7.902-4.5 7.794-.696-10.794-11.892-3.402L60 50l-4.794-9.696 8.892 8.598 9.696-4.794-4.5 7.794Z"/><path d="M75 75.98 61.902 59.295l-7.794 4.5 4.794-9.696-8.598-8.892L60 50l.696-10.794 3.402 11.892 10.794.696-7.794 4.5Z"/><path d="m60 80-3-21h-9l9-6-3-12 6 9 6-9-3 12 9 6h-9Z"/><path d="m45 75.98 7.902-19.686-7.794-4.5 10.794-.696 3.402-11.892L60 50l9.696-4.794-8.598 8.892 4.794 9.696-7.794-4.5Z"/><path d="m34.02 65 16.686-13.098-4.5-7.794 9.696 4.794 8.892-8.598L60 50l10.794.696-11.892 3.402-.696 10.794-4.5-7.794Z"/><path d="m30 50 21-3v-9l6 9 12-3-9 6 9 6-12-3-6 9v-9Z"/><path d="m34.02 35 19.686 7.902 4.5-7.794.696 10.794 11.892 3.402L60 50l4.794 9.696-8.892-8.598-9.696 4.794 4.5-7.794Z"/><path d="m45 24.02 13.098 16.686 7.794-4.5-4.794 9.696 8.598 8.892L60 50l-.696 10.794-3.402-11.892-10.794-.696 7.794-4.5Z"/></g><text x="600" y="55" fill="#fff" font-family="system-ui, -apple-system, sans-serif" font-size="38" font-weight="700" text-anchor="middle">
    The Best Apollo.io Alternative for European Companies
  </text><rect width="400" height="50" x="400" y="570" fill="url(#e)" filter="url(#h)" rx="25"/><text x="600" y="602" fill="#fff" font-family="system-ui, -apple-system, sans-serif" font-size="20" font-weight="600" text-anchor="middle">
    Switch to FindForce Today →
  </text><text x="600" y="90" fill="#fff" font-family="system-ui, -apple-system, sans-serif" font-size="16" opacity=".9" text-anchor="middle">
    73% of European sales teams are switching in 2025
  </text></svg>