<svg xmlns="http://www.w3.org/2000/svg" viewBox="0 0 1200 400"><defs><linearGradient id="a" x1="0%" x2="100%" y1="0%" y2="0%"><stop offset="0%" style="stop-color:#2563eb"/><stop offset="50%" style="stop-color:#1d4ed8"/><stop offset="100%" style="stop-color:#2563eb"/></linearGradient><linearGradient id="b" x1="0%" x2="100%" y1="0%" y2="100%"><stop offset="0%" style="stop-color:#039"/><stop offset="100%" style="stop-color:#0052cc"/></linearGradient><linearGradient id="d" x1="0%" x2="100%" y1="0%" y2="100%"><stop offset="0%" style="stop-color:#3b82f6"/><stop offset="50%" style="stop-color:#2563eb"/><stop offset="100%" style="stop-color:#1d4ed8"/></linearGradient><filter id="c"><feDropShadow dx="0" dy="1" flood-opacity=".2" stdDeviation="1"/></filter></defs><path fill="#fff" d="M0 0h1200v400H0z"/><path fill="url(#a)" d="M0 0h1200v200H0z" opacity=".05"/><path fill="url(#b)" d="M0 0h1200v4H0z"/><g fill="#039" opacity=".3" transform="translate(600 40)"><circle cx="-40" r="3"/><circle cx="-20" r="3"/><circle r="3"/><circle cx="20" r="3"/><circle cx="40" r="3"/></g><text x="600" y="120" fill="#1e293b" filter="url(#c)" font-family="system-ui, -apple-system, sans-serif" font-size="48" font-weight="800" text-anchor="middle">
    Apollo.io Alternative for Europe
  </text><text x="600" y="170" fill="#64748b" font-family="system-ui, -apple-system, sans-serif" font-size="24" font-weight="400" text-anchor="middle">
    GDPR-Compliant Email Finding That Actually Works
  </text><g transform="translate(250 250)"><rect width="160" height="60" x="-80" y="-30" fill="url(#a)" opacity=".1" rx="30"/><text y="8" fill="#2563eb" font-family="system-ui, -apple-system, sans-serif" font-size="28" font-weight="700" text-anchor="middle">
        €49/mo
      </text></g><g transform="translate(600 250)"><rect width="220" height="60" x="-110" y="-30" fill="#22c55e" opacity=".1" rx="30"/><text y="8" fill="#16a34a" font-family="system-ui, -apple-system, sans-serif" font-size="28" font-weight="700" text-anchor="middle">
        95% Accurate
      </text></g><g transform="translate(950 250)"><rect width="220" height="60" x="-110" y="-30" fill="#8b5cf6" opacity=".1" rx="30"/><text y="8" fill="#7c3aed" font-family="system-ui, -apple-system, sans-serif" font-size="28" font-weight="700" text-anchor="middle">
        2hr Support
      </text></g><g font-family="system-ui, -apple-system, sans-serif" font-size="20" text-anchor="middle"><text x="-180" fill="#ef4444" font-weight="600" transform="translate(600 340)">
      Apollo.io: €7,540/yr
    </text><text fill="#6b7280" font-weight="400" transform="translate(600 340)">
      vs
    </text><text x="180" fill="#22c55e" font-weight="600" transform="translate(600 340)">
      FindForce: €588/yr
    </text></g><text x="600" y="380" fill="#2563eb" font-family="system-ui, -apple-system, sans-serif" font-size="18" font-weight="600" text-anchor="middle">
    Join 500+ European companies saving 92% on email finding
  </text><g transform="translate(1120 320)"><rect width="60" height="60" x="-30" y="-30" fill="url(#d)" rx="15"/><circle r="16" fill="#fff"/><text y="6" fill="#2563eb" font-family="system-ui, -apple-system, sans-serif" font-size="24" font-weight="700" text-anchor="middle">
      @
    </text></g><path fill="url(#a)" d="M0 396h1200v4H0z" opacity=".2"/></svg>